<?xml version="1.0" encoding="UTF-8" standalone="no"?>
<!DOCTYPE svg PUBLIC "-//W3C//DTD SVG 1.1//EN" "http://www.w3.org/Graphics/SVG/1.1/DTD/svg11.dtd">
<svg width="100%" height="100%" viewBox="0 0 61 26" version="1.1" xmlns="http://www.w3.org/2000/svg" xmlns:xlink="http://www.w3.org/1999/xlink" xml:space="preserve" xmlns:serif="http://www.serif.com/" style="fill-rule:evenodd;clip-rule:evenodd;stroke-linejoin:round;stroke-miterlimit:2;">
    <path d="M19,0L52.99,-0C57.414,0 61,3.586 61,8.01C61,8.011 61,8.011 61,8.012C61,12.436 57.414,16.022 52.99,16.022L47,16.022L47,26L44,26L44,11L36.556,11C38.904,12.352 40.5,15.001 40.5,18.044C40.5,22.459 37.139,26.044 33,26.044C28.861,26.044 25.5,22.459 25.5,18.044C25.5,15.001 27.096,12.352 29.444,11L19,11L19,26L3,26L3,11L0,11L0,8L9.5,8L9.5,0L12.5,0L12.5,8L31.5,8L31.5,3L19,3L19,0ZM33,13.044C35.539,13.044 37.5,15.335 37.5,18.044C37.5,20.753 35.539,23.044 33,23.044C30.461,23.044 28.5,20.753 28.5,18.044C28.5,15.335 30.461,13.044 33,13.044ZM6,11L6,23L16,23L16,11L6,11ZM47,3L52.99,3C55.757,3 58,5.243 58,8.01L58,8.012C58,10.779 55.757,13.022 52.99,13.022L47,13.022L47,3ZM44,8L34.5,8L34.5,3L44,3L44,8Z" style="fill:rgb(46,60,126);"/>
</svg>
